#!OML:ASF E:\id_vita\Project 1\Capture day 1\Session 1\Male1.ASF
:FULLY-SPECIFIED
:DEGREES
353
root 17.5005 16.013 -0.0978489 -39.601 85.2231 -43.0992
lowerback -2.87249 1.42916 -1.18513
upperback 4.43715 2.04999 -0.241838
thorax 6.18395 0.986862 0.581946
lowerneck -9.83336 -0.0836146 8.30694
upperneck 27.4408 -0.618202 -1.80368
head 10.3563 0.631264 -2.08911
rclavicle -2.03754e-014 1.59028e-015
rhumerus -22.9273 2.19611 -88.9376
rradius 37.1474
rwrist -3.3806
rhand -21.5796 32.3046
rfingers 7.12502
rthumb 4.81473 2.37931
lclavicle -2.03754e-014 1.59028e-015
lhumerus -44.9484 32.7518 57.2823
lradius 3.70301
lwrist -19.9626
lhand -16.5857 51.014
lfingers 7.12502
lthumb 9.63511 80.7736
rfemur 17.3086 4.30942 26.4636
rtibia 9.83929
rfoot -10.5444 0.367108
rtoes -9.58977
lfemur -32.4482 -2.62424 -13.8705
ltibia 25.5226
lfoot -15.299 -0.853424
ltoes 8.93429
354
root 17.6836 16.0137 -0.11475 -33.3642 84.9522 -36.7164
lowerback -3.12951 1.48703 -1.44182
upperback 4.66661 2.16263 -0.35057
thorax 6.56931 1.03068 0.633952
lowerneck -10.5578 0.057507 8.32637
upperneck 27.9882 -0.453639 -1.95645
head 10.7108 0.706871 -2.13867
rclavicle 1.59028e-015 -9.54166e-015
rhumerus -22.647 2.06417 -89.1144
rradius 36.5881
rwrist -3.22438
rhand -21.5691 32.3366
rfingers 7.12502
rthumb 4.82485 2.41156
lclavicle 1.59028e-015 -9.54166e-015
lhumerus -44.7341 33.2814 57.3508
lradius 3.69812
lwrist -20.2103
lhand -16.5415 51.2058
lfingers 7.12502
lthumb 9.67774 80.9635
rfemur 16.7183 4.67063 26.0685
rtibia 12.6171
rfoot -10.3349 0.645868
rtoes -7.54078
lfemur -31.8582 -2.30897 -14.27
ltibia 26.1439
lfoot -15.1363 -1.43422
ltoes 10.8383
355
root 17.8674 16.0246 -0.136576 -29.7419 84.6697 -32.9061
lowerback -3.23999 1.41324 -1.66546
upperback 4.66854 2.07849 -0.331135
thorax 6.62877 0.976393 0.775208
lowerneck -10.4453 0.208534 8.24009
upperneck 28.255 -0.150623 -2.10524
head 10.8045 0.83159 -2.14382
rclavicle -2.52457e-014 2.38542e-015
rhumerus -22.8538 2.40201 -89.2888
rradius 35.8989
rwrist -2.83671
rhand -21.9494 32.6956
rfingers 7.12502
rthumb 4.45761 2.76255
lclavicle -2.52457e-014 2.38542e-015
lhumerus -45.2924 33.8178 57.0513
lradius 3.90547
lwrist -20.4178
lhand -16.3098 51.5033
lfingers 7.12502
lthumb 9.90124 81.2505
rfemur 16.2584 4.43549 25.6273
rtibia 15.1133
rfoot -9.87478 1.39044
rtoes -6.96924
lfemur -31.4157 -1.92952 -14.5808
ltibia 26.6741
lfoot -13.099 -1.81559
ltoes 9.28888
356
root 18.0514 16.0371 -0.158858 -27.1908 84.2229 -30.2997
lowerback -3.42842 1.36717 -1.74123
upperback 4.56025 2.01866 -0.310905
thorax 6.62076 0.941132 0.836877
lowerneck -10.0737 0.313125 8.06007
upperneck 28.5072 0.110863 -2.13854
head 10.8395 0.944374 -2.09431
rclavicle 4.45278e-014 -1.74931e-014
rhumerus -23.2384 2.73909 -89.5247
rradius 35.4003
rwrist -2.55242
rhand -21.8841 32.428
rfingers 7.12502
rthumb 4.52069 2.49622
lclavicle 4.45278e-014 -1.74931e-014
lhumerus -45.8506 34.3374 56.6794
lradius 3.98362
lwrist -20.6171
lhand -16.0837 51.8342
lfingers 7.12502
lthumb 10.1194 81.5709
rfemur 15.5878 4.31736 25.3072
rtibia 17.5241
rfoot -9.01508 2.50184
rtoes -5.74563
lfemur -31.1298 -1.69482 -14.6088
ltibia 27.127
lfoot -11.3812 -1.52232
ltoes 10.7692
357
root 18.2368 16.0496 -0.184524 -22.2979 84.0279 -25.4633
lowerback -3.73926 1.30781 -2.14357
upperback 4.40061 1.96936 -0.365653
thorax 6.62176 0.896908 1.0064
lowerneck -9.55776 0.335047 7.84139
upperneck 28.7318 0.296642 -2.22994
head 10.8293 1.01317 -2.06776
rclavicle 5.76476e-015 1.59028e-015
rhumerus -23.6544 2.92052 -89.6359
rradius 34.8312
rwrist -2.30193
rhand -21.7407 32.5619
rfingers 7.12502
rthumb 4.65919 2.63315
lclavicle 5.76476e-015 1.59028e-015
lhumerus -46.543 34.7066 56.3572
lradius 4.19815
lwrist -20.8515
lhand -15.9702 51.7603
lfingers 7.12502
lthumb 10.2289 81.4916
rfemur 14.626 3.85962 24.4259
rtibia 20.1609
rfoot -8.17796 3.89137
rtoes -5.15534
lfemur -30.9008 -1.72359 -15.0294
ltibia 27.4662
lfoot -10.0315 -1.06104
ltoes 13.5073
358
root 18.4187 16.0594 -0.208935 -18.3409 84.0517 -21.4949
lowerback -3.87061 1.37131 -2.39547
upperback 4.37672 2.08966 -0.592171
thorax 6.66931 0.949768 0.925748
lowerneck -10.0088 0.36148 8.41863
upperneck 29.2601 0.294066 -2.60708
head 11.1227 1.04888 -2.31208
rclavicle -3.54831e-014 3.18055e-015
rhumerus -23.8972 2.51507 -89.7786
rradius 34.221
rwrist -2.06291
rhand -21.9361 33.1478
rfingers 7.12502
rthumb 4.47047 3.215
lclavicle -3.54831e-014 3.18055e-015
lhumerus -46.2683 34.7248 56.5153
lradius 4.25277
lwrist -21.12
lhand -15.9998 51.5258
lfingers 7.12502
lthumb 10.2004 81.2585
rfemur 13.5528 3.14828 23.5125
rtibia 23.1125
rfoot -7.12384 5.25815
rtoes -3.50177
lfemur -30.5672 -1.65647 -15.6104
ltibia 27.6915
lfoot -8.62244 -1.21215
ltoes 15.0873
359
root 18.5936 16.0621 -0.229648 -15.843 84.0242 -18.9032
lowerback -3.78906 1.35285 -2.59012
upperback 4.27077 2.08078 -0.733434
thorax 6.50916 0.942565 0.882445
lowerneck -10.4928 0.271851 7.81209
upperneck 30.1402 0.130512 -2.04065
head 11.5528 1.01277 -2.02824
rclavicle -2.38542e-015 -7.15625e-015
rhumerus -24.3537 2.48423 -89.9855
rradius 33.6979
rwrist -1.90361
rhand -22.1182 33.5074
rfingers 7.12502
rthumb 4.29459 3.57097
lclavicle -2.38542e-015 -7.15625e-015
lhumerus -46.0567 34.9852 56.5546
lradius 4.14032
lwrist -21.3806
lhand -15.8647 51.4512
lfingers 7.12502
lthumb 10.3307 81.1774
rfemur 12.4472 2.58762 22.8612
rtibia 26.1789
rfoot -5.5396 6.56599
rtoes 0.495131
lfemur -30.0851 -1.35065 -16.1015
ltibia 27.9441
lfoot -7.63266 -1.89365
ltoes 14.2026
360
root 18.7686 16.0628 -0.252441 -10.7392 84.0852 -13.7007
lowerback -3.8151 1.22473 -3.06096
upperback 4.23141 1.95376 -0.915703
thorax 6.4798 0.863625 0.94431
lowerneck -10.2369 0.369547 7.75714
upperneck 30.0751 0.326873 -2.09389
head 11.4857 1.088 -2.01247
rclavicle 1.93815e-014 -3.18055e-015
rhumerus -24.5835 2.48654 -90.1241
rradius 32.9963
rwrist -1.35915
rhand -21.9985 33.7544
rfingers 7.12502
rthumb 4.41022 3.82036
lclavicle 1.93815e-014 -3.18055e-015
lhumerus -45.9174 35.5402 56.537
lradius 4.09455
lwrist -21.6175
lhand -15.5513 51.5006
lfingers 7.12502
lthumb 10.633 81.2116
rfemur 11.2525 2.03944 21.8519
rtibia 29.2439
rfoot -3.40824 8.10595
rtoes 5.12755
lfemur -29.5433 -1.12422 -16.9585
ltibia 28.3259
lfoot -7.7488 -2.6092
ltoes 11.5204
361
root 18.9479 16.0686 -0.274137 -5.28035 84.2614 -8.22449
lowerback -4.06305 1.2003 -3.45201
upperback 4.21098 1.98209 -1.24492
thorax 6.60168 0.867083 0.828598
lowerneck -10.0171 0.359106 8.16095
upperneck 30.0174 0.302623 -2.27513
head 11.4191 1.10174 -2.15101
rclavicle -1.51076e-014 -2.38542e-015
rhumerus -24.8917 1.58501 -90.2474
rradius 32.382
rwrist -0.519992
rhand -21.6413 33.4906
rfingers 7.12502
rthumb 4.75509 3.56398
lclavicle -1.51076e-014 -2.38542e-015
lhumerus -45.4182 35.5883 56.6403
lradius 4.06194
lwrist -21.8927
lhand -15.3132 51.4368
lfingers 7.12502
lthumb 10.8626 81.1359
rfemur 9.89854 1.41737 20.785
rtibia 32.2767
rfoot -0.947002 9.65003
rtoes 9.84234
lfemur -29.1219 -0.982138 -17.9062
ltibia 28.7989
lfoot -8.40556 -2.89002
ltoes 1.85816
362
root 19.1228 16.0751 -0.295648 -1.88279 84.4373 -4.83728
lowerback -4.20268 1.20444 -3.62277
upperback 4.18539 2.02574 -1.51384
thorax 6.65913 0.888188 0.651053
lowerneck -10.388 0.35681 8.63304
upperneck 30.4889 0.243197 -2.49863
head 11.6788 1.12048 -2.32935
rclavicle 1.66979e-014 -3.18055e-014
rhumerus -25.2081 0.507403 -90.3499
rradius 31.844
rwrist 0.244231
rhand -21.3985 33.1863
rfingers 7.12502
rthumb 4.98958 3.26505
lclavicle 1.66979e-014 -3.18055e-014
lhumerus -44.8004 35.5608 56.8619
lradius 4.09918
lwrist -22.2563
lhand -15.1731 51.2382
lfingers 7.12502
lthumb 10.9978 80.9301
rfemur 8.54363 0.824621 19.9894
rtibia 35.1986
rfoot 1.45428 10.7002
rtoes 13.8418
lfemur -28.8351 -0.844944 -18.607
ltibia 29.341
lfoot -9.17686 -2.146
ltoes -0.326837
363
root 19.288 16.0794 -0.318518 1.29887 84.5227 -1.61718
lowerback -4.07087 1.44435 -3.58284
upperback 4.12886 2.3692 -1.96259
thorax 6.53239 1.0774 0.189587
lowerneck -10.8652 0.131462 9.22644
upperneck 30.8272 -0.29419 -2.39094
head 11.8817 0.975444 -2.46587
rclavicle -3.16068e-014 1.82882e-014
rhumerus -25.5893 -1.25276 -90.515
rradius 31.3478
rwrist 0.97256
rhand -21.3236 33.3311
rfingers 7.12502
rthumb 5.06189 3.41154
lclavicle -3.16068e-014 1.82882e-014
lhumerus -43.4716 35.0424 57.416
lradius 3.93877
lwrist -22.6796
lhand -15.1873 50.9795
lfingers 7.12502
lthumb 10.9841 80.6722
rfemur 7.31849 0.449297 19.2584
rtibia 37.9938
rfoot 3.78371 11.5815
rtoes 16.5817
lfemur -28.5863 -0.710417 -19.237
ltibia 29.9379
lfoot -9.7781 -2.14704
ltoes 0.550368
364
root 19.4494 16.0847 -0.338824 3.75741 84.6549 0.930747
lowerback -3.93264 0.588766 -4.56611
upperback 3.77808 1.21029 -1.21619
thorax 6.08022 0.446522 1.4037
lowerneck -9.57993 0.625102 7.62511
upperneck 30.6648 0.991594 -2.56258
head 11.6184 1.35314 -2.08394
rclavicle 1.56046e-014 5.56597e-015
rhumerus -26.6539 1.47312 -90.2246
rradius 30.9952
rwrist 0.890844
rhand -21.0835 33.1031
rfingers 7.12502
rthumb 5.2937 3.1892
lclavicle 1.56046e-014 5.56597e-015
lhumerus -45.9412 37.2421 56.5183
lradius 4.52626
lwrist -23.0152
lhand -15.1095 50.6449
lfingers 7.12502
lthumb 11.0592 80.3336
rfemur 6.12365 0.202178 18.6749
rtibia 40.7415
rfoot 5.98564 12.7364
rtoes 17.2742
lfemur -28.2627 -0.524886 -19.7881
ltibia 30.4936
lfoot -10.4033 -2.74625
ltoes 2.25831
365
root 19.612 16.0919 -0.358574 5.75161 84.8672 3.15646
lowerback -3.63573 -0.373214 -5.67241
upperback 3.46173 -0.0946399 -0.342804
thorax 5.66384 -0.256029 2.81734
lowerneck -8.62599 1.26487 6.13329
upperneck 30.8236 2.46938 -2.95209
head 11.5506 1.82107 -1.7889
rclavicle 5.36719e-015 9.14409e-015
rhumerus -27.705 4.54192 -89.9491
rradius 30.6716
rwrist 0.739154
rhand -21.0065 33.2045
rfingers 7.12502
rthumb 5.36806 3.29252
lclavicle 5.36719e-015 9.14409e-015
lhumerus -48.7428 39.6373 55.3215
lradius 5.19285
lwrist -23.3912
lhand -14.8623 50.1532
lfingers 7.12502
lthumb 11.2976 79.8289
rfemur 4.96914 -0.104661 18.1639
rtibia 43.4628
rfoot 8.42705 13.7849
rtoes 17.8954
lfemur -27.6512 -0.343425 -20.3057
ltibia 30.9087
lfoot -10.8072 -2.91218
ltoes 3.36158
